<svg xmlns="http://www.w3.org/2000/svg" viewBox="0 0 21.44 26.4"><defs><style>.cls-1{fill:#737d8c;}</style></defs><g id="Layer_2" data-name="Layer 2"><g id="Layer_2-2" data-name="Layer 2"><path class="cls-1" d="M4.22,14.73,21.33,0a.06.06,0,0,1,.1.08L17,8.23a.27.27,0,0,1-.06.1l-4.19,6.21a1.27,1.27,0,0,1-.25.27L9.14,17.5s0,0-.06,0c-.27-.1-2.16-.77-4.27,1.22L1.59,22.11A.07.07,0,0,1,1.48,22L3.9,15.18A1.12,1.12,0,0,1,4.22,14.73Z"/><path class="cls-1" d="M.86,23.79A.34.34,0,0,1,1,23.65l4.62-4.43a4.16,4.16,0,0,1,3.2-.81l12.35,1.11s0,0,0,0L14.92,21.4a3,3,0,0,0-1.62,1,.21.21,0,0,1-.16.08l-3.85-.36A.17.17,0,0,1,9.13,22a1.61,1.61,0,0,0-1.28-1C6.27,20.6.34,25.28.34,25.28Z"/><path class="cls-1" d="M12.64,23.39a.11.11,0,0,1,0,.22l-4.9,1.94-.42.55-.48-.31L.12,26.4a.11.11,0,0,1,0-.22l7.4-3h0Z"/></g></g></svg>